# xmcd
#
# Track frame offsets:
#	150
#	25227
#	54147
#	72398
#	91478
#	109343
#	130744
#
# Disc length: 1937 seconds
#
# Revision: 1
# Processed by: cddbd v1.5.1PL0 Copyright (c) Steve Scherf et al.
# Submitted via: CDex 1.50Beta5
#
DISCID=59078f07
DTITLE=Love Mania - Password
DYEAR=2003
DGENRE=Jazz
TTITLE0=Password
TTITLE1=リピート
TTITLE2=渦
TTITLE3=マドリガル
TTITLE4=Flow
TTITLE5=Rainbow
TTITLE6=沫
EXTD=
EXTT0=
EXTT1=
EXTT2=
EXTT3=
EXTT4=
EXTT5=
EXTT6=
PLAYORDER=
